<?xml version="1.0" encoding="UTF-8" standalone="no"?>
<svg xmlns="http://www.w3.org/2000/svg" xmlns:xlink="http://www.w3.org/1999/xlink" xmlns:scade="http://www.scade.io/v0.1" eObject-URI="exercisesCollection.page#/0" widget-name="exercisesCollection" width="414" height="736">
  <rect template-id="background" width="100%" height="100%" fill="#f8f8f8" />
  <svg template-id="content-box">
    <g template-id="content">
      <g template-id="children-content">
        <svg eObject-URI="exercisesCollection.page#/0/@children.0" widget-name="navigationBar" width="414" height="46">
          <svg template-id="content-box">
            <g template-id="content">
              <g template-id="children-content">
                <svg eObject-URI="exercisesCollection.page#/0/@children.0/@children.0" widget-name="backButton" width="172" height="46">
                  <svg template-id="content-box" width="172" height="46">
                    <g template-id="content">
                      <svg viewBox="0 0 132 44" xmlns="http://www.w3.org/2000/svg" template-id="content-background" y="1" width="132" height="44" fill="none">
                        <path d="M 14.3765 22 C 14.3836 21.778 14.4266 21.5739 14.5054 21.3877 C 14.5913 21.2015 14.7202 21.0225 14.8921 20.8506 L 23.1636 12.7617 C 23.4357 12.4896 23.7687 12.3535 24.1626 12.3535 C 24.4347 12.3535 24.6782 12.418 24.8931 12.5469 C 25.1151 12.6758 25.2905 12.8512 25.4194 13.0732 C 25.5555 13.2881 25.6235 13.528 25.6235 13.793 C 25.6235 14.194 25.4731 14.5449 25.1724 14.8457 L 17.814 22 L 25.1724 29.1543 C 25.4731 29.4622 25.6235 29.8132 25.6235 30.207 C 25.6235 30.4792 25.5555 30.7227 25.4194 30.9375 C 25.2905 31.1523 25.1151 31.3242 24.8931 31.4531 C 24.6782 31.582 24.4347 31.6465 24.1626 31.6465 C 23.7687 31.6465 23.4357 31.5104 23.1636 31.2383 L 14.8921 23.1494 C 14.7131 22.9775 14.5806 22.7985 14.4946 22.6123 C 14.4159 22.4189 14.3765 22.2148 14.3765 22 z" fill="#0" />
                        <path d="M 34.2744 28 V 26.6802 H 37.9766 C 38.8786 26.6802 39.562 26.5003 40.0269 26.1406 C 40.4917 25.7809 40.7241 25.258 40.7241 24.5718 V 24.5552 C 40.7241 24.0959 40.6162 23.7113 40.4004 23.4014 C 40.1846 23.0915 39.8608 22.859 39.4292 22.7041 C 39.0031 22.5492 38.4718 22.4717 37.8354 22.4717 H 34.2744 V 21.1851 H 37.4121 C 38.3197 21.1851 39.0003 21.0246 39.4541 20.7036 C 39.9134 20.3826 40.1431 19.9067 40.1431 19.2759 V 19.2593 C 40.1431 18.6506 39.9355 18.1802 39.5205 17.8481 C 39.111 17.5106 38.5355 17.3418 37.7939 17.3418 H 34.2744 V 16.022 H 38.1094 C 38.8454 16.022 39.4762 16.1437 40.002 16.3872 C 40.5332 16.6307 40.9399 16.9766 41.2222 17.4248 C 41.5099 17.8675 41.6538 18.3932 41.6538 19.002 V 19.0186 C 41.6538 19.4336 41.5597 19.8237 41.3716 20.189 C 41.189 20.5542 40.9427 20.8613 40.6328 21.1104 C 40.3229 21.3594 39.9743 21.5199 39.5869 21.5918 V 21.7246 C 40.1348 21.791 40.6079 21.9543 41.0063 22.2144 C 41.4048 22.4744 41.7119 22.812 41.9277 23.2271 C 42.1491 23.6366 42.2598 24.1042 42.2598 24.6299 V 24.6465 C 42.2598 25.3438 42.0965 25.9442 41.77 26.4478 C 41.4491 26.9458 40.987 27.3304 40.3838 27.6016 C 39.7806 27.8672 39.0529 28 38.2007 28 H 34.2744 z M 33.5273 28 V 16.022 H 35.0215 V 28 H 33.5273 z M 46.5446 28.1577 C 45.9802 28.1577 45.471 28.0498 45.0173 27.834 C 44.569 27.6182 44.2121 27.311 43.9465 26.9126 C 43.6864 26.5142 43.5563 26.0438 43.5563 25.5015 V 25.4849 C 43.5563 24.688 43.8386 24.0654 44.403 23.6172 C 44.973 23.1634 45.7782 22.9061 46.8185 22.8452 L 50.1056 22.646 V 23.7998 L 46.9929 23.999 C 46.3122 24.0378 45.8141 24.1789 45.4987 24.4224 C 45.1888 24.6659 45.0339 25.009 45.0339 25.4517 V 25.4683 C 45.0339 25.922 45.2054 26.2762 45.5485 26.5308 C 45.8916 26.7798 46.3233 26.9043 46.8434 26.9043 C 47.336 26.9043 47.7731 26.8075 48.155 26.6138 C 48.5368 26.4146 48.8356 26.1462 49.0514 25.8086 C 49.2728 25.471 49.3835 25.0892 49.3835 24.6631 V 21.874 C 49.3835 21.3206 49.2147 20.9001 48.8771 20.6123 C 48.5451 20.319 48.0443 20.1724 47.3747 20.1724 C 46.8379 20.1724 46.398 20.2692 46.0549 20.4629 C 45.7118 20.651 45.4821 20.9194 45.3659 21.2681 L 45.3576 21.293 H 43.9133 L 43.9216 21.2432 C 43.999 20.7728 44.1927 20.3633 44.5026 20.0146 C 44.818 19.6605 45.2248 19.3866 45.7228 19.1929 C 46.2209 18.9937 46.7881 18.894 47.4245 18.894 C 48.155 18.894 48.772 19.013 49.2756 19.251 C 49.7847 19.4889 50.1693 19.832 50.4294 20.2803 C 50.695 20.723 50.8278 21.2542 50.8278 21.874 V 28 H 49.3835 V 26.6802 H 49.2507 C 49.0625 26.9956 48.8329 27.264 48.5617 27.4854 C 48.2961 27.7067 47.9945 27.8755 47.6569 27.9917 C 47.3193 28.1024 46.9486 28.1577 46.5446 28.1577 z M 56.6981 28.1577 C 55.8625 28.1577 55.1376 27.9668 54.5233 27.585 C 53.909 27.2031 53.4331 26.6636 53.0956 25.9663 C 52.758 25.269 52.5892 24.4473 52.5892 23.501 V 23.4844 C 52.5892 22.5547 52.7552 21.7467 53.0873 21.0605 C 53.4248 20.3743 53.9007 19.8431 54.515 19.4668 C 55.1293 19.085 55.8542 18.894 56.6898 18.894 C 57.4147 18.894 58.0401 19.0213 58.5658 19.2759 C 59.0915 19.5304 59.5121 19.8735 59.8275 20.3052 C 60.1429 20.7313 60.3449 21.21 60.4335 21.7412 L 60.4418 21.791 H 59.0057 L 58.9974 21.7661 C 58.8867 21.3234 58.635 20.9471 58.2421 20.6372 C 57.8491 20.3273 57.3317 20.1724 56.6898 20.1724 C 56.153 20.1724 55.6882 20.3079 55.2953 20.5791 C 54.9024 20.8503 54.598 21.2349 54.3822 21.7329 C 54.1719 22.2254 54.0668 22.8092 54.0668 23.4844 V 23.501 C 54.0668 24.1872 54.1747 24.7848 54.3905 25.2939 C 54.6063 25.7975 54.9107 26.1877 55.3036 26.4644 C 55.6965 26.741 56.1586 26.8794 56.6898 26.8794 C 57.293 26.8794 57.7855 26.7493 58.1673 26.4893 C 58.5492 26.2292 58.8231 25.8501 58.9891 25.3521 L 59.0057 25.3022 L 60.4335 25.2939 L 60.4169 25.3853 C 60.2951 25.922 60.0793 26.4007 59.7694 26.8213 C 59.4595 27.2363 59.05 27.5628 58.5409 27.8008 C 58.0318 28.0387 57.4175 28.1577 56.6981 28.1577 z M 62.2032 28 V 15.499 H 63.6475 V 28 H 62.2032 z M 67.8394 28 L 64.3448 23.6172 L 65.4073 22.6958 L 69.6573 28 H 67.8394 z M 63.4649 24.7793 L 63.3985 22.9614 H 63.7803 L 67.6485 19.0518 H 69.3999 L 65.1499 23.1523 L 64.8013 23.4927 L 63.4649 24.7793 z" fill="#0" />
                      </svg>
                      <text alignment-baseline="middle" font-size="17" font-family="ArialMT" font-style="normal" text-decoration="none" template-id="node-text" x="0" y="23" fill="#446ab3" />
                    </g>
                  </svg>
                </svg>
                <svg eObject-URI="exercisesCollection.page#/0/@children.0/@children.1" widget-name="navTitle" x="167" y="13" width="81" height="21">
                  <svg template-id="content-box" width="81" height="21">
                    <g template-id="content">
                      <text alignment-baseline="middle" font-size="17" font-family="SFPro-Semibold" font-style="normal" text-decoration="none" template-id="node-text" x="0" y="10.5" fill="#0">Collection</text>
                    </g>
                  </svg>
                </svg>
                <svg eObject-URI="exercisesCollection.page#/0/@children.0/@children.2" widget-name="doneButton" x="363" y="13" width="51" height="21">
                  <svg template-id="content-box" width="31" height="21">
                    <g template-id="content">
                      <text text-anchor="middle" alignment-baseline="middle" font-size="17" font-family="SF Pro" font-style="normal" text-decoration="none" template-id="node-text" x="15.5" y="10.5" fill="#0">Add</text>
                    </g>
                  </svg>
                </svg>
              </g>
            </g>
          </svg>
        </svg>
        <svg widget-name="rowView" eObject-URI="exercisesCollection.page#/0/@children.1" x="16" y="62" width="382" height="58">
          <rect template-id="background" width="100%" height="100%" rx="6%" fill="#ffffff" stroke="#dbdde1" />
          <svg template-id="content-box">
            <g template-id="content">
              <g template-id="children-content">
                <svg widget-name="rowView1" eObject-URI="exercisesCollection.page#/0/@children.1/@children.0" x="20" y="17" width="310" height="24">
                  <svg template-id="content-box">
                    <g template-id="content">
                      <g template-id="children-content">
                        <svg widget-name="searchButton" eObject-URI="exercisesCollection.page#/0/@children.1/@children.0/@children.0" width="44" height="24">
                          <svg template-id="content-box" width="24" height="24">
                            <g template-id="content">
                              <svg viewBox="0 0 24 24" xmlns="http://www.w3.org/2000/svg" template-id="content-background" width="24" height="24" fill="none">
                                <path fill-rule="evenodd" clip-rule="evenodd" d="M 10.5 3 C 6.35786 3 3 6.35786 3 10.5 C 3 14.6421 6.35786 18 10.5 18 C 12.5129 18 14.3407 17.207 15.6878 15.9163 C 15.719 15.8731 15.754 15.8318 15.7929 15.7929 C 15.8318 15.754 15.8731 15.719 15.9163 15.6878 C 17.207 14.3407 18 12.5129 18 10.5 C 18 6.35786 14.6421 3 10.5 3 z M 17.8875 16.4733 C 19.2086 14.8415 20 12.7631 20 10.5 C 20 5.25329 15.7467 1 10.5 1 C 5.25329 1 1 5.25329 1 10.5 C 1 15.7467 5.25329 20 10.5 20 C 12.7631 20 14.8415 19.2086 16.4733 17.8875 L 21.2929 22.7071 C 21.6834 23.0976 22.3166 23.0976 22.7071 22.7071 C 23.0976 22.3166 23.0976 21.6834 22.7071 21.2929 L 17.8875 16.4733 z" fill="#9a9a9a" />
                              </svg>
                              <text text-anchor="middle" alignment-baseline="middle" font-size="17" font-family="ArialMT" font-style="normal" text-decoration="none" template-id="node-text" x="12" y="12" fill="#446ab3" />
                            </g>
                          </svg>
                        </svg>
                        <svg widget-name="textbox1" eObject-URI="exercisesCollection.page#/0/@children.1/@children.0/@children.1" x="44" width="266" height="19">
                          <svg template-id="content-box" width="266" height="19">
                            <g template-id="content">
                              <text alignment-baseline="middle" font-size="16" font-family="SFProDisplay-Semibold" font-style="normal" text-decoration="none" editable="true" template-id="node-text" inputTextWidth="266" x="0" y="9.5" fill="#9a9b9a">Поиск</text>
                            </g>
                          </svg>
                        </svg>
                      </g>
                    </g>
                  </svg>
                </svg>
                <svg display="none" widget-name="cancelButton" eObject-URI="exercisesCollection.page#/0/@children.1/@children.1" x="330" y="17" width="32" height="24">
                  <svg template-id="content-box" x="16" width="0" height="24">
                    <g template-id="content">
                      <text text-anchor="middle" alignment-baseline="middle" font-size="17" font-family="ArialMT" font-style="normal" text-decoration="none" template-id="node-text" x="0" y="12" fill="#ff3399">Cancel</text>
                    </g>
                  </svg>
                </svg>
              </g>
            </g>
          </svg>
        </svg>
        <svg widget-name="list" eObject-URI="exercisesCollection.page#/0/@children.2" x="16" y="136" width="382" height="47">
          <rect template-id="background" width="100%" height="100%" fill="#ebecf1" />
          <g scrollableBox="382 47" template-id="listContent" scrollable="vertical">
            <svg widget-name="listElement" eObject-URI="exercisesCollection.page#/0/@children.2/@template/@element" x="10" width="372" height="53">
              <g template-id="elementContent">
                <svg widget-name="rowView2" eObject-URI="exercisesCollection.page#/0/@children.2/@template/@element/@children.0" width="372" height="53">
                  <svg template-id="content-box">
                    <g template-id="content">
                      <g template-id="children-content">
                        <svg widget-name="rowView3" eObject-URI="exercisesCollection.page#/0/@children.2/@template/@element/@children.0/@children.0" x="5" y="5" width="280" height="43">
                          <svg template-id="content-box">
                            <g template-id="content">
                              <g template-id="children-content">
                                <svg widget-name="selectedButton" eObject-URI="exercisesCollection.page#/0/@children.2/@template/@element/@children.0/@children.0/@children.0" x="24" width="40" height="43">
                                  <svg template-id="content-box" width="24" height="43">
                                    <g template-id="content">
                                      <svg viewBox="0 0 24 24" xmlns="http://www.w3.org/2000/svg" template-id="content-background" y="9.5" width="24" height="24" fill="none">
                                        <path stroke-width="2" stroke-linejoin="round" stroke-linecap="round" d="M 3.5 12 L 7.64235 16.1424 C 8.11757 16.6176 8.35519 16.8552 8.62918 16.9442 C 8.87019 17.0225 9.12981 17.0225 9.37082 16.9442 C 9.64481 16.8552 9.88242 16.6176 10.3576 16.1424 L 20.5 6" stroke="#2d264b" />
                                      </svg>
                                      <text text-anchor="middle" alignment-baseline="middle" font-size="17" font-family="ArialMT" font-style="normal" text-decoration="none" template-id="node-text" x="12" y="21.5" fill="#446ab3" />
                                    </g>
                                  </svg>
                                </svg>
                                <svg widget-name="listView2" eObject-URI="exercisesCollection.page#/0/@children.2/@template/@element/@children.0/@children.0/@children.1" x="64" width="151" height="43">
                                  <svg template-id="content-box">
                                    <g template-id="content">
                                      <g template-id="children-content">
                                        <svg widget-name="label3" eObject-URI="exercisesCollection.page#/0/@children.2/@template/@element/@children.0/@children.0/@children.1/@children.0" x="5" y="5" width="141" height="19">
                                          <svg template-id="content-box" width="141" height="19">
                                            <g template-id="content">
                                              <text alignment-baseline="middle" font-size="16" font-family="SF Pro Text" font-style="normal" text-decoration="none" template-id="node-text" x="0" y="9.5" fill="#0">Замедление, 2:00</text>
                                            </g>
                                          </svg>
                                        </svg>
                                        <svg widget-name="label4" eObject-URI="exercisesCollection.page#/0/@children.2/@template/@element/@children.0/@children.0/@children.1/@children.1" x="5" y="24" width="141" height="14">
                                          <svg template-id="content-box" width="141" height="14">
                                            <g template-id="content">
                                              <text alignment-baseline="middle" font-size="12" font-family="SFProText-Medium" font-style="normal" text-decoration="none" template-id="node-text" x="0" y="7" fill="#6d6d6d">No Repeats, Pause 1:00</text>
                                            </g>
                                          </svg>
                                        </svg>
                                      </g>
                                    </g>
                                  </svg>
                                </svg>
                              </g>
                            </g>
                          </svg>
                        </svg>
                        <svg widget-name="rowView4" eObject-URI="exercisesCollection.page#/0/@children.2/@template/@element/@children.0/@children.1" x="285" y="5" width="82" height="43">
                          <svg template-id="content-box">
                            <g template-id="content">
                              <g template-id="children-content">
                                <svg widget-name="button1" eObject-URI="exercisesCollection.page#/0/@children.2/@template/@element/@children.0/@children.1/@children.0" x="5" y="6" width="38" height="30">
                                  <svg template-id="content-box" width="30" height="30">
                                    <g template-id="content">
                                      <svg viewBox="0 0 30 30" xmlns="http://www.w3.org/2000/svg" template-id="content-background" width="30" height="30" fill="none">
                                        <rect width="30" height="30" rx="15" fill="#34c759" />
                                      </svg>
                                      <text text-anchor="middle" alignment-baseline="middle" font-size="17" font-family="ArialMT" font-style="normal" text-decoration="none" template-id="node-text" x="15" y="15" fill="#446ab3" />
                                    </g>
                                  </svg>
                                </svg>
                                <svg widget-name="button4" eObject-URI="exercisesCollection.page#/0/@children.2/@template/@element/@children.0/@children.1/@children.1" x="43" y="5" width="34" height="33">
                                  <svg template-id="content-box" width="10" height="33">
                                    <g template-id="content">
                                      <svg viewBox="0 0 10 20" xmlns="http://www.w3.org/2000/svg" template-id="content-background" y="6.5" width="10" height="20" fill="none">
                                        <path d="M 8.71533 10 C 8.71533 10.1686 8.68115 10.3258 8.61279 10.4717 C 8.54899 10.613 8.44645 10.752 8.30518 10.8887 L 3.14404 15.9473 C 2.93441 16.1569 2.6792 16.2617 2.37842 16.2617 C 2.18245 16.2617 2.00016 16.2116 1.83154 16.1113 C 1.66292 16.0156 1.52848 15.8857 1.42822 15.7217 C 1.33252 15.5576 1.28467 15.3753 1.28467 15.1748 C 1.28467 14.874 1.40088 14.6051 1.6333 14.3682 L 6.13818 9.99316 L 1.6333 5.625 C 1.40088 5.39714 1.28467 5.13053 1.28467 4.8252 C 1.28467 4.62467 1.33252 4.44238 1.42822 4.27832 C 1.52848 4.11426 1.66292 3.98438 1.83154 3.88867 C 2.00016 3.78841 2.18245 3.73828 2.37842 3.73828 C 2.6792 3.73828 2.93441 3.84082 3.14404 4.0459 L 8.30518 9.10449 C 8.44645 9.24121 8.54899 9.38249 8.61279 9.52832 C 8.6766 9.6696 8.71077 9.82682 8.71533 10 z" fill="#c7c7cc" />
                                      </svg>
                                      <text text-anchor="middle" alignment-baseline="middle" font-size="17" font-family="ArialMT" font-style="normal" text-decoration="none" template-id="node-text" x="5" y="16.5" fill="#446ab3" />
                                    </g>
                                  </svg>
                                </svg>
                              </g>
                            </g>
                          </svg>
                        </svg>
                      </g>
                    </g>
                  </svg>
                </svg>
              </g>
              <g template-id="elementSeparator">
                <line stroke-miterlimit="10" template-id="separatorLine" x2="100%" stroke="#cccbd0" />
              </g>
              <g />
              <g />
            </svg>
          </g>
        </svg>
      </g>
    </g>
  </svg>
</svg>
