<?xml version="1.0" encoding="UTF-8"?>
<svg width="35px" height="36px" viewBox="0 0 35 36" version="1.1" xmlns="http://www.w3.org/2000/svg" xmlns:xlink="http://www.w3.org/1999/xlink">
    <!-- Generator: Sketch 43.1 (39012) - http://www.bohemiancoding.com/sketch -->
    <title>Activity Icon</title>
    <desc>Created with Sketch.</desc>
    <defs></defs>
    <g id="Menu" stroke="none" stroke-width="1" fill="none" fill-rule="evenodd">
        <g id="Menu-#1" transform="translate(-91.000000, -974.000000)" fill="#A7B5C6">
            <g id="Menu" transform="translate(88.000000, 475.000000)">
                <path d="M4.42564749,528.834159 L4.77245581,527.854236 C5.39584646,526.095345 6.59076858,522.949221 7.59013835,521.643018 C11.1154827,517.036193 10.5904085,511.37922 10.5655593,511.13397 C10.5612377,511.008643 10.4856097,508.044026 12.6799016,505.762222 C14.3285916,504.049788 16.808109,503.180067 20.0482278,503.180067 C23.2764623,503.180067 25.7494973,504.043306 27.3981873,505.744936 C28.9247922,507.321239 29.3612737,509.257315 29.4844392,510.320429 L29.6151676,510.320429 L29.5287356,511.132889 C29.5049668,511.370577 28.9528826,516.998379 32.5063173,521.644098 C33.4516671,522.881156 34.5601573,525.704241 35.3229195,527.853156 L35.6708082,528.834159 L4.42564749,528.834159 Z M23.6200294,531.309354 C22.9717896,532.683623 21.5694307,533.572792 20.0482278,533.572792 C18.527025,533.572792 17.1246661,532.683623 16.4764263,531.309354 L15.9826836,530.260286 L24.1137721,530.260286 L23.6200294,531.309354 Z M37.0256295,528.416044 C36.718796,527.478257 35.1079199,522.699649 33.6418175,520.777618 C30.4719246,516.633204 30.9256925,511.519672 30.9462201,511.305753 L30.9559437,511.19015 C30.9624261,511.041055 31.0780289,507.51247 28.4418535,504.772576 C27.2739414,503.558207 25.7451757,502.699289 23.8955313,502.218511 L23.4493263,502.05321 L23.3639747,501.665346 C23.0182468,500.095525 21.6547823,499 20.0482278,499 C18.4416734,499 17.0782089,500.095525 16.732481,501.665346 L16.5844663,502.118034 L16.1987635,502.218511 C14.35128,502.698208 12.8214339,503.557126 11.651361,504.772576 C9.01950722,507.510309 9.13078839,511.015126 9.13727079,511.16098 L9.14591399,511.283065 C9.15131599,511.336004 9.64181747,516.612677 6.45679902,520.776537 C4.99501816,522.684523 3.37874013,527.475016 3.06974581,528.416044 C2.92929384,528.843882 3.00384142,529.316017 3.26745896,529.679031 C3.5310765,530.043126 3.9556736,530.260286 4.40511989,530.260286 L14.7056511,530.327271 L14.8223343,530.829657 C15.3906245,533.284325 17.54062,535 20.0482278,535 C22.5558357,535 24.7058312,533.284325 25.2741214,530.829657 L25.4750758,530.260286 L35.689175,530.260286 C36.1397017,530.260286 36.5653792,530.043126 36.8300771,529.679031 C37.0926143,529.314937 37.1660815,528.842802 37.0256295,528.416044 L37.0256295,528.416044 Z" id="Activity-Icon"></path>
            </g>
        </g>
    </g>
</svg>