<?xml version="1.0" encoding="UTF-8"?>
<svg width="41px" height="33px" viewBox="0 0 41 33" version="1.1" xmlns="http://www.w3.org/2000/svg" xmlns:xlink="http://www.w3.org/1999/xlink">
    <!-- Generator: Sketch 43.1 (39012) - http://www.bohemiancoding.com/sketch -->
    <title>Credit Cards Icon</title>
    <desc>Created with Sketch.</desc>
    <defs></defs>
    <g id="Menu" stroke="none" stroke-width="1" fill="none" fill-rule="evenodd">
        <g id="Menu-#1" transform="translate(-88.000000, -728.000000)" fill="#A7B5C6">
            <g id="Menu" transform="translate(88.000000, 475.000000)">
                <path d="M14.9730124,273.666049 L7.00893994,274.89582 C6.61260475,274.956969 6.34196444,275.328392 6.4031133,275.723595 C6.45860022,276.082561 6.76660928,276.338481 7.1187814,276.338481 C7.15501776,276.338481 7.1935189,276.335083 7.22975526,276.329421 L15.1938277,275.09965 C15.5912953,275.038501 15.8608032,274.668211 15.8007868,274.271876 C15.7407703,273.87554 15.3625533,273.608297 14.9730124,273.666049 L14.9730124,273.666049 Z M6.66809168,273.425983 C6.70432804,273.425983 6.74282917,273.423718 6.78019792,273.418056 L22.7083429,270.957381 C23.1058104,270.896232 23.3764507,270.525942 23.3153019,270.129607 C23.254153,269.733272 22.8725389,269.466028 22.4875275,269.52378 L6.55825021,271.984455 C6.16191503,272.045604 5.89127471,272.415895 5.95242357,272.81223 C6.0079105,273.170064 6.31591955,273.425983 6.66809168,273.425983 L6.66809168,273.425983 Z M39.217402,266.01225 L36.0750301,266.01225 L35.3525677,261.336628 L37.0296317,261.336628 C38.2356231,261.336628 39.217402,262.317274 39.217402,263.523265 L39.217402,266.01225 Z M39.217402,271.234816 L36.8812891,271.234816 L36.2992426,267.462837 L39.217402,267.462837 L39.217402,271.234816 Z M39.217402,282.362775 C39.217402,283.568767 38.2356231,284.549413 37.0296317,284.549413 L8.03488188,284.549413 C6.82889052,284.549413 5.84937642,283.568767 5.84937642,282.362775 L5.84937642,281.865658 C5.97620368,281.863393 6.10416333,281.855466 6.23438774,281.836216 L34.8882893,277.409718 C36.4781596,277.16399 37.5675152,275.676035 37.3217874,274.087297 L37.1055016,272.686535 L39.217402,272.686535 L39.217402,282.362775 Z M4.34556749,279.18077 L2.86780343,269.618901 L34.4104223,264.74511 L35.8881864,274.308112 C35.9482029,274.694256 35.8542148,275.080399 35.623208,275.395203 C35.3922012,275.710006 35.0536177,275.9161 34.667474,275.974985 L6.01244004,280.402615 C5.93657016,280.413939 5.86070028,280.419601 5.78483041,280.419601 C5.07369184,280.419601 4.45427657,279.887379 4.34556749,279.18077 L4.34556749,279.18077 Z M2.07060352,264.456352 L33.6132224,259.583694 L34.189607,263.311509 L2.64585573,268.184167 L2.07060352,264.456352 Z M1.46930642,260.563208 C1.40928995,260.177064 1.50327801,259.79092 1.7342848,259.476117 C1.96415921,259.161314 2.30387508,258.955219 2.69001879,258.896335 L31.3439204,254.468705 C31.4209226,254.457381 31.4967925,254.450587 31.57153,254.450587 C32.283801,254.450587 32.9032162,254.983941 33.0119253,255.689417 L33.3924071,258.150093 L1.84865581,263.022751 L1.46930642,260.563208 Z M37.0296317,259.886041 L35.1283552,259.886041 L34.4455263,255.468602 C34.2235786,254.029339 32.9836157,253 31.5703976,253 C31.4231874,253 31.2737124,253.011324 31.1231051,253.035104 L2.46807109,257.462734 C0.879333185,257.70733 -0.211154771,259.195285 0.0345730445,260.785155 L2.91083411,279.402718 C3.05577955,280.334672 3.62989938,281.088841 4.39765725,281.508956 L4.39765725,282.362775 C4.39765725,284.368231 6.03055822,286 8.03488188,286 L37.0296317,286 C39.0362202,286 40.6679887,284.368231 40.6679887,282.362775 L40.6679887,263.523265 C40.6679887,261.517809 39.0362202,259.886041 37.0296317,259.886041 L37.0296317,259.886041 Z" id="Credit-Cards-Icon"></path>
            </g>
        </g>
    </g>
</svg>