<!DOCTYPE svg PUBLIC "-//W3C//DTD SVG 1.1//EN" "http://www.w3.org/Graphics/SVG/1.1/DTD/svg11.dtd">
<!-- Uploaded to: SVG Repo, www.svgrepo.com, Transformed by: SVG Repo Mixer Tools -->
<svg fill="#7b7c7c" width="800px" height="800px" viewBox="0 0 32 32" version="1.1" xmlns="http://www.w3.org/2000/svg">
<g id="SVGRepo_bgCarrier" stroke-width="0"/>
<g id="SVGRepo_tracerCarrier" stroke-linecap="round" stroke-linejoin="round"/>
<g id="SVGRepo_iconCarrier"> <title>stopwatch</title> <path d="M15.975 5.117c-7.051 0-12.777 5.723-12.777 12.77s5.727 12.77 12.777 12.77 12.777-5.723 12.777-12.77-5.727-12.77-12.777-12.77zM15.975 28.467c-5.829 0-10.554-4.755-10.554-10.581s4.724-10.548 10.554-10.548c5.829 0 10.553 4.722 10.553 10.548s-4.724 10.581-10.553 10.581zM18.227 17.561c-0.004-0.020-0.007-0.039-0.011-0.059-0.074-0.352-0.224-0.669-0.43-0.936l2.944-7.962-4.761 7.060c-0.162-0.001-0.326 0.014-0.491 0.049-1.25 0.261-2.052 1.486-1.79 2.736s1.487 2.051 2.737 1.789c0.526-0.11 0.973-0.391 1.294-0.773l8.148 1.256-7.642-3.159zM10.624 0.708h10.104v3.749h-10.104v-3.749z"/> </g>
</svg>