<!DOCTYPE svg PUBLIC "-//W3C//DTD SVG 1.1//EN" "http://www.w3.org/Graphics/SVG/1.1/DTD/svg11.dtd">
<!-- Uploaded to: SVG Repo, www.svgrepo.com, Transformed by: SVG Repo Mixer Tools -->
<svg fill="#FF3399" width="800px" height="800px" viewBox="0 0 32 32" data-name="Layer 7" id="Layer_7" xmlns="http://www.w3.org/2000/svg">
<g id="SVGRepo_bgCarrier" stroke-width="0"/>
<g id="SVGRepo_tracerCarrier" stroke-linecap="round" stroke-linejoin="round"/>
<g id="SVGRepo_iconCarrier">
<title/>
<path d="M19.83,14.29a11.17,11.17,0,0,0,5.48-9.73A1.24,1.24,0,0,0,26.5,3.33V2.74A1.24,1.24,0,0,0,25.26,1.5H6.74A1.24,1.24,0,0,0,5.5,2.74V3.33A1.23,1.23,0,0,0,6.65,4.55c0.08,4.25,2.25,8.08,5.58,9.79A1.84,1.84,0,0,1,13.17,16v0.19a1.81,1.81,0,0,1-1,1.59,11.08,11.08,0,0,0-5.51,9.69A1.23,1.23,0,0,0,5.5,28.67v0.59A1.24,1.24,0,0,0,6.74,30.5H25.26a1.24,1.24,0,0,0,1.24-1.24V28.67a1.24,1.24,0,0,0-1.19-1.23,11.1,11.1,0,0,0-5.47-9.66,1.81,1.81,0,0,1-1-1.58V15.87A1.81,1.81,0,0,1,19.83,14.29ZM6.5,3.33V2.74A0.24,0.24,0,0,1,6.74,2.5H25.26a0.24,0.24,0,0,1,.24.24V3.33a0.24,0.24,0,0,1-.24.24H6.74A0.24,0.24,0,0,1,6.5,3.33Zm19,25.34v0.59a0.24,0.24,0,0,1-.24.24H6.74a0.24,0.24,0,0,1-.24-0.24V28.67a0.24,0.24,0,0,1,.24-0.24H25.26A0.24,0.24,0,0,1,25.5,28.67Zm-6.13-10a10.09,10.09,0,0,1,5,8.77H7.64a10.08,10.08,0,0,1,5-8.78,2.81,2.81,0,0,0,1.55-2.47V16a2.81,2.81,0,0,0-1.49-2.53,10.12,10.12,0,0,1-5-8.88H24.32a10.17,10.17,0,0,1-5,8.84,2.81,2.81,0,0,0-1.53,2.46V16.2A2.81,2.81,0,0,0,19.37,18.66Z"/>
</g>
</svg>