<?xml version="1.0" encoding="UTF-8"?>
<svg xmlns="http://www.w3.org/2000/svg" xmlns:xlink="http://www.w3.org/1999/xlink" xmlns:scade="http://www.scade.io/v0.1" eObject-URI="DynamicButtonGrid.page#/0" widget-name="DynamicButtonGrid" width="414" height="896">
    <svg template-id="content-box">
        <g template-id="content">
            <g template-id="children-content">
                <g template-id="children-content">
                    <svg widget-name="customwidget1" eObject-URI="DynamicButtonGrid.page#/0/@children.0" width="300" height="300">
                        <svg template-id="content-box">
                            <g template-id="content">
                                <path id="Credit-Cards-Icon" d="M 14.973 273.666 L 7.00894 274.896 C 6.6126 274.957 6.34196 275.328 6.40311 275.724 C 6.4586 276.083 6.76661 276.338 7.11878 276.338 C 7.15502 276.338 7.19352 276.335 7.22976 276.329 L 15.1938 275.1 C 15.5913 275.039 15.8608 274.668 15.8008 274.272 C 15.7408 273.876 15.3626 273.608 14.973 273.666 L 14.973 273.666 z M 6.66809 273.426 C 6.70433 273.426 6.74283 273.424 6.7802 273.418 L 22.7083 270.957 C 23.1058 270.896 23.3765 270.526 23.3153 270.13 C 23.2542 269.733 22.8725 269.466 22.4875 269.524 L 6.55825 271.984 C 6.16191 272.046 5.89127 272.416 5.95242 272.812 C 6.00791 273.17 6.31592 273.426 6.66809 273.426 L 6.66809 273.426 z M 39.2174 266.012 L 36.075 266.012 L 35.3526 261.337 L 37.0296 261.337 C 38.2356 261.337 39.2174 262.317 39.2174 263.523 L 39.2174 266.012 z M 39.2174 271.235 L 36.8813 271.235 L 36.2992 267.463 L 39.2174 267.463 L 39.2174 271.235 z M 39.2174 282.363 C 39.2174 283.569 38.2356 284.549 37.0296 284.549 L 8.03488 284.549 C 6.82889 284.549 5.84938 283.569 5.84938 282.363 L 5.84938 281.866 C 5.9762 281.863 6.10416 281.855 6.23439 281.836 L 34.8883 277.41 C 36.4782 277.164 37.5675 275.676 37.3218 274.087 L 37.1055 272.687 L 39.2174 272.687 L 39.2174 282.363 z M 4.34557 279.181 L 2.8678 269.619 L 34.4104 264.745 L 35.8882 274.308 C 35.9482 274.694 35.8542 275.08 35.6232 275.395 C 35.3922 275.71 35.0536 275.916 34.6675 275.975 L 6.01244 280.403 C 5.93657 280.414 5.8607 280.42 5.78483 280.42 C 5.07369 280.42 4.45428 279.887 4.34557 279.181 L 4.34557 279.181 z M 2.0706 264.456 L 33.6132 259.584 L 34.1896 263.312 L 2.64586 268.184 L 2.0706 264.456 z M 1.46931 260.563 C 1.40929 260.177 1.50328 259.791 1.73428 259.476 C 1.96416 259.161 2.30388 258.955 2.69002 258.896 L 31.3439 254.469 C 31.4209 254.457 31.4968 254.451 31.5715 254.451 C 32.2838 254.451 32.9032 254.984 33.0119 255.689 L 33.3924 258.15 L 1.84866 263.023 L 1.46931 260.563 z M 37.0296 259.886 L 35.1284 259.886 L 34.4455 255.469 C 34.2236 254.029 32.9836 253 31.5704 253 C 31.4232 253 31.2737 253.011 31.1231 253.035 L 2.46807 257.463 C 0.879333 257.707 -0.211155 259.195 0.034573 260.785 L 2.91083 279.403 C 3.05578 280.335 3.6299 281.089 4.39766 281.509 L 4.39766 282.363 C 4.39766 284.368 6.03056 286 8.03488 286 L 37.0296 286 C 39.0362 286 40.668 284.368 40.668 282.363 L 40.668 263.523 C 40.668 261.518 39.0362 259.886 37.0296 259.886 L 37.0296 259.886 z"/>
                            </g>
                        </svg>
                    </svg>
                </g>
            </g>
        </g>
    </svg>
</svg>