<?xml version="1.0" encoding="UTF-8"?>
<svg width="36px" height="36px" viewBox="0 0 36 36" version="1.1" xmlns="http://www.w3.org/2000/svg" xmlns:xlink="http://www.w3.org/1999/xlink">
    <!-- Generator: Sketch 43.1 (39012) - http://www.bohemiancoding.com/sketch -->
    <title>Bank Office</title>
    <desc>Created with Sketch.</desc>
    <defs></defs>
    <g id="Menu" stroke="none" stroke-width="1" fill="none" fill-rule="evenodd">
        <g id="Menu-#1" transform="translate(-92.000000, -604.000000)" fill="#A7B5C6">
            <g id="Menu" transform="translate(88.000000, 475.000000)">
                <path d="M19.8324019,150.339911 L19.8324019,148.780949 C20.6304287,148.607855 21.2812139,148.203222 21.6925911,147.589528 C22.1174561,146.957851 22.2186144,146.178932 21.9792063,145.396641 C21.6554997,144.346842 20.7484467,143.430797 19.5502826,142.948609 C18.7016766,142.606919 18.1621655,142.162946 18.0295357,141.69537 C17.9441131,141.396391 18.0329077,141.063692 18.2925474,140.710762 C18.4802523,140.455618 18.6960567,140.317369 18.9714321,140.278029 C19.5412907,140.193731 20.2336632,140.539917 20.6551563,140.859128 C20.970995,141.097412 21.4228356,141.035593 21.6633676,140.719754 C21.9038996,140.402791 21.8409566,139.952075 21.5239939,139.711543 C21.2935777,139.536202 20.6405445,139.086609 19.8324019,138.904524 L19.8324019,137.583846 C19.8324019,137.185956 19.5098192,136.863374 19.1119298,136.863374 C18.7151644,136.863374 18.3925817,137.185956 18.3925817,137.583846 L18.3925817,138.946111 C17.8969059,139.100097 17.4641731,139.40582 17.1314746,139.858784 C16.6032033,140.578132 16.4346061,141.349184 16.6447907,142.088763 C16.8257517,142.729433 17.3843704,143.627494 19.0118955,144.285023 C19.8110462,144.606482 20.4056324,145.180836 20.6023291,145.820382 C20.6798839,146.073277 20.7248431,146.447563 20.4966749,146.78813 C20.1594805,147.289425 19.5412907,147.418683 19.0827063,147.438915 C18.1441818,147.473758 17.3281713,147.10172 17.0977552,146.812857 C16.8482313,146.502638 16.3952668,146.454307 16.0850479,146.703831 C15.7748291,146.952231 15.7253739,147.405195 15.9748977,147.715414 C16.4503419,148.307752 17.3854944,148.712386 18.3925817,148.82928 L18.3925817,150.339911 C18.3925817,150.7378 18.7151644,151.060383 19.1119298,151.060383 C19.5098192,151.060383 19.8324019,150.7378 19.8324019,150.339911 M27.2349433,163.56018 C23.5887477,163.56018 19.9897593,161.675263 18.0565113,158.876549 C18.3566143,158.894533 18.6555934,158.922633 18.9613163,158.922633 C19.1366574,158.922633 19.3086266,158.902401 19.4828437,158.895657 C21.4318274,161.161604 24.2406569,162.464298 27.2349433,162.464298 C32.875082,162.464298 37.464298,157.876206 37.464298,152.236067 C37.464298,149.238409 36.1616035,146.436323 33.8956571,144.48734 C33.901277,144.310875 33.9215086,144.138905 33.9215086,143.961316 C33.9215086,143.663461 33.8945331,143.371226 33.8776734,143.077867 C36.7809173,145.157233 38.5601798,148.565144 38.5601798,152.236067 C38.5601798,158.479784 33.4797839,163.56018 27.2349433,163.56018 M5.43982016,143.961316 C5.43982016,136.504824 11.5048238,130.43982 18.9613163,130.43982 C26.4166849,130.43982 32.4816885,136.504824 32.4816885,143.961316 C32.4816885,151.416685 26.4166849,157.482812 18.9613163,157.482812 C11.5048238,157.482812 5.43982016,151.416685 5.43982016,143.961316 M33.718068,146.317181 C35.1904836,147.926723 36.0244778,150.017328 36.0244778,152.236067 C36.0244778,157.081551 32.0815511,161.024478 27.2349433,161.024478 C25.019576,161.024478 22.9244747,160.191608 21.3149333,158.718068 C27.677792,157.706485 32.7042368,152.678916 33.718068,146.317181 M33.719192,141.241281 C33.7000843,141.230042 33.6787287,141.230042 33.658497,141.22105 C32.3670424,134.277093 26.2739392,129 18.9613163,129 C10.7112929,129 4,135.712417 4,143.961316 C4,151.279559 9.28608449,157.377158 16.2379094,158.661869 C18.2116207,162.397983 22.7019264,165 27.2349433,165 C34.2733148,165 40,159.274439 40,152.236067 C40,147.691811 37.5935558,143.479128 33.719192,141.241281 M8.43747854,143.961316 C8.43747854,138.159324 13.1582004,133.437479 18.9613163,133.437479 C24.7633083,133.437479 29.4840301,138.159324 29.4840301,143.961316 C29.4840301,149.763308 24.7633083,154.48403 18.9613163,154.48403 C13.1582004,154.48403 8.43747854,149.763308 8.43747854,143.961316 M30.9238503,143.961316 C30.9238503,137.36467 25.5568391,131.997658 18.9613163,131.997658 C12.3646695,131.997658 6.99765837,137.36467 6.99765837,143.961316 C6.99765837,150.557963 12.3646695,155.92385 18.9613163,155.92385 C25.5568391,155.92385 30.9238503,150.557963 30.9238503,143.961316" id="Bank-Office"></path>
            </g>
        </g>
    </g>
</svg>