<?xml version="1.0" encoding="UTF-8"?>
<svg width="36px" height="35px" viewBox="0 0 36 35" version="1.1" xmlns="http://www.w3.org/2000/svg" xmlns:xlink="http://www.w3.org/1999/xlink">
    <!-- Generator: Sketch 43.1 (39012) - http://www.bohemiancoding.com/sketch -->
    <title>Dashboard Icon</title>
    <desc>Created with Sketch.</desc>
    <defs></defs>
    <g id="Menu" stroke="none" stroke-width="1" fill="none" fill-rule="evenodd">
        <g id="Menu-#1" transform="translate(-92.000000, -479.000000)" fill="#A7B5C6">
            <g id="Menu" transform="translate(88.000000, 475.000000)">
                <path d="M4.71912493,14.7352675 C5.11627037,14.7352675 5.43824987,14.4144099 5.43824987,14.0161426 L5.43824987,11.1418866 C5.43824987,10.7447412 5.11627037,10.4227617 4.71912493,10.4227617 C4.32197949,10.4227617 4,10.7447412 4,11.1418866 L4,14.0161426 C4,14.4144099 4.32197949,14.7352675 4.71912493,14.7352675 L4.71912493,14.7352675 Z M4.71912493,8.98563371 C5.11627037,8.98563371 5.43824987,8.66477609 5.43824987,8.26763065 L5.43824987,5.3922528 C5.43824987,4.99510736 5.11627037,4.67424974 4.71912493,4.67424974 C4.32197949,4.67424974 4,4.99510736 4,5.3922528 L4,8.26763065 C4,8.66477609 4.32197949,8.98563371 4.71912493,8.98563371 L4.71912493,8.98563371 Z M4.71912493,20.4849014 C5.11627037,20.4849014 5.43824987,20.1629219 5.43824987,19.7657764 L5.43824987,16.8915205 C5.43824987,16.494375 5.11627037,16.1723955 4.71912493,16.1723955 C4.32197949,16.1723955 4,16.494375 4,16.8915205 L4,19.7657764 C4,20.1629219 4.32197949,20.4849014 4.71912493,20.4849014 L4.71912493,20.4849014 Z M39.2808751,37.013556 L5.43824987,37.013556 L5.43824987,34.1393001 C5.43824987,33.7421546 5.11627037,33.4201751 4.71912493,33.4201751 C4.32197949,33.4201751 4,33.7421546 4,34.1393001 L4,37.732681 C4,38.1298264 4.32197949,38.450684 4.71912493,38.450684 C4.73034373,38.450684 4.74044065,38.4450746 4.75165945,38.4450746 C4.76400012,38.4450746 4.77297516,38.450684 4.78531584,38.450684 L39.2808751,38.450684 C39.6780205,38.450684 40,38.1298264 40,37.732681 C40,37.3355355 39.6780205,37.013556 39.2808751,37.013556 L39.2808751,37.013556 Z M4.71912493,31.9830472 C5.11627037,31.9830472 5.43824987,31.6621895 5.43824987,31.2650441 L5.43824987,28.3896662 C5.43824987,27.9925208 5.11627037,27.6716632 4.71912493,27.6716632 C4.32197949,27.6716632 4,27.9925208 4,28.3896662 L4,31.2650441 C4,31.6621895 4.32197949,31.9830472 4.71912493,31.9830472 L4.71912493,31.9830472 Z M4.71912493,26.2334133 C5.11627037,26.2334133 5.43824987,25.9125557 5.43824987,25.5154103 L5.43824987,22.6411543 C5.43824987,22.242887 5.11627037,21.9220294 4.71912493,21.9220294 C4.32197949,21.9220294 4,22.242887 4,22.6411543 L4,25.5154103 C4,25.9125557 4.32197949,26.2334133 4.71912493,26.2334133 L4.71912493,26.2334133 Z M9.66773661,34.0787186 L15.4173704,34.0787186 L15.4173704,14.0666272 L9.66773661,14.0666272 L9.66773661,34.0787186 Z M8.94861167,35.5158466 L16.1353735,35.5158466 C16.5325189,35.5158466 16.8544984,35.1949889 16.8544984,34.7978435 L16.8544984,13.3486241 C16.8544984,12.9514787 16.5325189,12.6294992 16.1353735,12.6294992 L8.94861167,12.6294992 C8.55146623,12.6294992 8.22948674,12.9514787 8.22948674,13.3486241 L8.22948674,34.7978435 C8.22948674,35.1949889 8.55146623,35.5158466 8.94861167,35.5158466 L8.94861167,35.5158466 Z M32.6640282,34.0787186 L38.413662,34.0787186 L38.413662,5.43712799 L32.6640282,5.43712799 L32.6640282,34.0787186 Z M31.9460251,35.5158466 L39.1327869,35.5158466 C39.5299324,35.5158466 39.85079,35.1949889 39.85079,34.7978435 L39.85079,4.71912493 C39.85079,4.32197949 39.5299324,4 39.1327869,4 L31.9460251,4 C31.5488797,4 31.2269002,4.32197949 31.2269002,4.71912493 L31.2269002,34.7978435 C31.2269002,35.1949889 31.5488797,35.5158466 31.9460251,35.5158466 L31.9460251,35.5158466 Z M21.1658824,34.0787186 L26.9155162,34.0787186 L26.9155162,21.328555 L21.1658824,21.328555 L21.1658824,34.0787186 Z M20.4467575,35.5158466 L27.6335193,35.5158466 C28.0306647,35.5158466 28.3526442,35.1949889 28.3526442,34.7978435 L28.3526442,20.60943 C28.3526442,20.2122846 28.0306647,19.891427 27.6335193,19.891427 L20.4467575,19.891427 C20.0507339,19.891427 19.7287544,20.2122846 19.7287544,20.60943 L19.7287544,34.7978435 C19.7287544,35.1949889 20.0507339,35.5158466 20.4467575,35.5158466 L20.4467575,35.5158466 Z" id="Dashboard-Icon"></path>
            </g>
        </g>
    </g>
</svg>