<?xml version="1.0" encoding="UTF-8"?>
<svg width="36px" height="36px" viewBox="0 0 36 36" version="1.1" xmlns="http://www.w3.org/2000/svg" xmlns:xlink="http://www.w3.org/1999/xlink">
    <!-- Generator: Sketch 43.1 (39012) - http://www.bohemiancoding.com/sketch -->
    <title>Investments Icon</title>
    <desc>Created with Sketch.</desc>
    <defs></defs>
    <g id="Menu" stroke="none" stroke-width="1" fill="none" fill-rule="evenodd">
        <g id="Menu-#1" transform="translate(-92.000000, -849.000000)" fill="#A7B5C6">
            <g id="Menu" transform="translate(88.000000, 475.000000)">
                <path d="M38.4441175,408.565019 L7.58809487,408.565019 L7.58809487,376.858761 L8.44953184,378.00697 C8.58955736,378.195164 8.80575675,378.294863 9.02307635,378.294863 C9.17318371,378.294863 9.32441126,378.247814 9.45323474,378.151476 C9.7702525,377.912873 9.83522434,377.463671 9.59662086,377.146653 L7.44358853,374.27669 C7.42902588,374.255407 7.4066218,374.245325 7.38869853,374.227401 C7.3797369,374.21732 7.36965506,374.208358 7.35957322,374.198276 C7.33828935,374.176992 7.3259671,374.150107 7.30020241,374.132184 C7.28788016,374.122102 7.27331751,374.120982 7.25987506,374.113141 C7.22738914,374.090737 7.19266281,374.077294 7.15681628,374.061611 C7.14897485,374.058251 7.14225362,374.05601 7.1344122,374.05377 C7.09184444,374.035847 7.05039689,374.016803 7.00446852,374.007841 C6.96190076,374 6.92045321,374.00224 6.87676525,374.00112 C6.87452484,374.00112 6.87228443,374 6.87004402,374 C6.86780361,374 6.86556321,374.00112 6.8633228,374.00112 C6.81963484,374.00224 6.77818728,374 6.73561953,374.007841 C6.69081136,374.016803 6.64936381,374.035847 6.60567585,374.05377 C6.59783442,374.05601 6.59111319,374.058251 6.58327177,374.061611 C6.54854544,374.077294 6.51381911,374.090737 6.48021299,374.113141 C6.46677054,374.120982 6.45220788,374.122102 6.43988564,374.132184 C6.41412094,374.150107 6.4017987,374.176992 6.38051482,374.198276 C6.37043298,374.208358 6.36035114,374.21732 6.35138951,374.227401 C6.33458645,374.245325 6.31106216,374.255407 6.29649951,374.27669 L4.14346718,377.146653 C3.9059839,377.463671 3.96983554,377.912873 4.28685331,378.151476 C4.41567678,378.247814 4.56690434,378.294863 4.71701169,378.294863 C4.9354515,378.294863 5.15053069,378.195164 5.29167641,378.00697 L6.15199318,376.858761 L6.15199318,409.162087 C6.15199318,409.183371 6.16319522,409.201294 6.16431542,409.222578 C6.16319522,409.242742 6.15199318,409.260665 6.15199318,409.283069 C6.15199318,409.679622 6.47349176,410 6.87004402,410 L38.4441175,410 C38.8406698,410 39.1621684,409.679622 39.1621684,409.283069 C39.1621684,408.885397 38.8406698,408.565019 38.4441175,408.565019 M11.4897658,403.827675 C11.6689985,403.827675 11.8493514,403.760463 11.9893769,403.626039 L16.0355542,399.707564 L19.7669541,402.296356 C19.9293837,402.409497 20.1310205,402.448704 20.325936,402.408377 C20.5197313,402.365809 20.6877619,402.245947 20.7897005,402.075676 L24.6734482,395.62442 L28.3152318,399.392787 C28.46982,399.552976 28.68938,399.62691 28.9134208,399.607866 C29.1352212,399.580981 29.3323772,399.453278 29.4477582,399.262843 L38.0587673,384.852538 C38.2615242,384.511996 38.150624,384.071755 37.8112022,383.866758 C37.4695399,383.665121 37.0292997,383.777142 36.8265428,384.115443 L28.6961012,397.721443 L25.056558,393.955316 C24.9019698,393.795127 24.6801694,393.721194 24.4594892,393.741357 C24.2376888,393.766002 24.0416531,393.893705 23.926272,394.08414 L19.9551484,400.679902 L16.3682548,398.191928 C16.0859634,397.995893 15.7062142,398.029499 15.4597693,398.266982 L10.9901548,402.594331 C10.7056229,402.871021 10.6989017,403.324704 10.9744719,403.609235 C11.1144975,403.754862 11.3026917,403.827675 11.4897658,403.827675" id="Investments-Icon"></path>
            </g>
        </g>
    </g>
</svg>