<svg width="612" height="612" xmlns="http://www.w3.org/2000/svg">

 <g>
  <title>background</title>
  <rect fill="none" id="canvas_background" height="402" width="582" y="-1" x="-1"/>
 </g>
 <g>
  <title>Layer 1</title>
  <g id="svg_1">
   <g id="Ellipse_2_copy_3">
    <g id="svg_2">
     <path fill="#c21816" id="svg_3" d="m55.636,250.364c-30.729,0 -55.636,24.906 -55.636,55.636c0,30.73 24.907,55.636 55.636,55.636s55.637,-24.906 55.637,-55.636c0,-30.73 -24.907,-55.636 -55.637,-55.636zm259.637,0c-30.73,0 -55.636,24.907 -55.636,55.636c0,30.729 24.907,55.636 55.636,55.636c30.729,0 55.636,-24.905 55.636,-55.636c0,-30.73 -24.906,-55.636 -55.636,-55.636zm241.091,0c-30.73,0 -55.636,24.907 -55.636,55.636c0,30.729 24.906,55.636 55.636,55.636c30.729,0 55.636,-24.906 55.636,-55.636c0,-30.73 -24.907,-55.636 -55.636,-55.636z"/>
    </g>
   </g>
  </g>
  <g id="svg_4"/>
  <g id="svg_5"/>
  <g id="svg_6"/>
  <g id="svg_7"/>
  <g id="svg_8"/>
  <g id="svg_9"/>
  <g id="svg_10"/>
  <g id="svg_11"/>
  <g id="svg_12"/>
  <g id="svg_13"/>
  <g id="svg_14"/>
  <g id="svg_15"/>
  <g id="svg_16"/>
  <g id="svg_17"/>
  <g id="svg_18"/>
 </g>
</svg>