<?xml version="1.0" encoding="utf-8"?>
<!-- Svg Vector Icons : http://www.onlinewebfonts.com/icon -->
<!DOCTYPE svg PUBLIC "-//W3C//DTD SVG 1.1//EN" "http://www.w3.org/Graphics/SVG/1.1/DTD/svg11.dtd">
<svg version="1.1" xmlns="http://www.w3.org/2000/svg" xmlns:xlink="http://www.w3.org/1999/xlink" x="0px" y="0px" viewBox="0 0 1000 1000" enable-background="new 0 0 1000 1000" xml:space="preserve">
<g><path fill="#EB4F38" d="M852.8,558.8c0,194.5-158.3,352.8-352.8,352.8c-194.5,0-352.8-158.3-352.8-352.8c0-188,147.9-341.7,333.4-351.8v106.8c0,3.5,1.9,6.7,4.9,8.5c1.5,0.9,3.2,1.3,4.9,1.3c1.7,0,3.4-0.4,4.9-1.3l254.6-147c3-1.8,4.9-5,4.9-8.5c0-3.5-1.9-6.7-4.9-8.5l-254.6-147c-3.1-1.8-6.7-1.8-9.8,0c-3,1.8-4.9,5-4.9,8.5v108.8c-228.7,10.2-411.8,199-411.8,430.2C68.8,796.6,262.2,990,500,990c237.8,0,431.2-193.4,431.2-431.2H852.8z"/></g>
</svg>