<?xml version="1.0" ?><svg height="32" id="svg4152" version="1.1" viewBox="0 0 32 32" width="32" xmlns="http://www.w3.org/2000/svg" xmlns:cc="http://creativecommons.org/ns#" xmlns:dc="http://purl.org/dc/elements/1.1/" xmlns:inkscape="http://www.inkscape.org/namespaces/inkscape" xmlns:rdf="http://www.w3.org/1999/02/22-rdf-syntax-ns#" xmlns:sodipodi="http://sodipodi.sourceforge.net/DTD/sodipodi-0.dtd" xmlns:svg="http://www.w3.org/2000/svg"><defs id="defs4154"/><g id="layer1"><g id="g4367" style="fill:none;stroke:#cccccc;stroke-linecap:round;stroke-linejoin:round;stroke-opacity:1" transform="matrix(1.1161895,0,0,1.1161895,-203.47456,-0.06528597)"><path d="m 184.55221,5.7491562 24.15239,0 0,20.6349688 -24.15239,0 z" id="path4297" style="opacity:1;fill:none;fill-opacity:1;stroke:#cccccc;stroke-width:1.01788676;stroke-linecap:round;stroke-linejoin:round;stroke-miterlimit:4;stroke-dasharray:none;stroke-opacity:1"/><path d="m 190.18868,2.4 0,5.6656859" id="path4299" style="fill:none;fill-rule:evenodd;stroke:#cccccc;stroke-width:1px;stroke-linecap:round;stroke-linejoin:round;stroke-opacity:1"/><path d="m 194.19403,2.4 0,5.6656859" id="path4301" style="fill:none;fill-rule:evenodd;stroke:#cccccc;stroke-width:1px;stroke-linecap:round;stroke-linejoin:round;stroke-opacity:1"/><path d="m 198.15225,2.4 0,5.6656859" id="path4303" style="fill:none;fill-rule:evenodd;stroke:#cccccc;stroke-width:1px;stroke-linecap:round;stroke-linejoin:round;stroke-opacity:1"/><path d="m 202.20472,2.4 0,5.6656859" id="path4305" style="fill:none;fill-rule:evenodd;stroke:#cccccc;stroke-width:1px;stroke-linecap:round;stroke-linejoin:round;stroke-opacity:1"/><path d="m 206.21007,2.4 0,5.6656859" id="path4307" style="fill:none;fill-rule:evenodd;stroke:#cccccc;stroke-width:1px;stroke-linecap:round;stroke-linejoin:round;stroke-opacity:1"/><path d="m 185.97988,8.600013 2.05906,0 0,2.799974 -2.05906,0 z" id="path4309" style="opacity:1;fill:none;fill-opacity:1;stroke:#cccccc;stroke-width:0.36584055;stroke-linecap:round;stroke-linejoin:round;stroke-miterlimit:4;stroke-dasharray:none;stroke-opacity:1"/><path d="m 189.16195,8.600013 2.05906,0 0,2.799974 -2.05906,0 z" id="path4311" style="opacity:1;fill:none;fill-opacity:1;stroke:#cccccc;stroke-width:0.36584055;stroke-linecap:round;stroke-linejoin:round;stroke-miterlimit:4;stroke-dasharray:none;stroke-opacity:1"/><path d="m 192.37504,8.600013 2.05906,0 0,2.799974 -2.05906,0 z" id="path4313" style="opacity:1;fill:none;fill-opacity:1;stroke:#cccccc;stroke-width:0.36584055;stroke-linecap:round;stroke-linejoin:round;stroke-miterlimit:4;stroke-dasharray:none;stroke-opacity:1"/><path d="m 195.55711,8.600013 2.05906,0 0,2.799974 -2.05906,0 z" id="path4315" style="opacity:1;fill:none;fill-opacity:1;stroke:#cccccc;stroke-width:0.36584055;stroke-linecap:round;stroke-linejoin:round;stroke-miterlimit:4;stroke-dasharray:none;stroke-opacity:1"/><path d="m 198.75905,8.600013 2.05907,0 0,2.799974 -2.05907,0 z" id="path4317" style="opacity:1;fill:none;fill-opacity:1;stroke:#cccccc;stroke-width:0.36584055;stroke-linecap:round;stroke-linejoin:round;stroke-miterlimit:4;stroke-dasharray:none;stroke-opacity:1"/><path d="m 201.94112,8.600013 2.05906,0 0,2.799974 -2.05906,0 z" id="path4319" style="opacity:1;fill:none;fill-opacity:1;stroke:#cccccc;stroke-width:0.36584055;stroke-linecap:round;stroke-linejoin:round;stroke-miterlimit:4;stroke-dasharray:none;stroke-opacity:1"/><path d="m 205.21556,8.600013 2.05906,0 0,2.799974 -2.05906,0 z" id="path4321" style="opacity:1;fill:none;fill-opacity:1;stroke:#cccccc;stroke-width:0.36584055;stroke-linecap:round;stroke-linejoin:round;stroke-miterlimit:4;stroke-dasharray:none;stroke-opacity:1"/><path d="m 186.55463,2.4 0,5.6656859" id="path4323" style="fill:none;fill-rule:evenodd;stroke:#cccccc;stroke-width:1px;stroke-linecap:round;stroke-linejoin:round;stroke-opacity:1"/><path d="m 185.97988,12.600013 2.05906,0 0,2.799974 -2.05906,0 z" id="path4325" style="opacity:1;fill:none;fill-opacity:1;stroke:#cccccc;stroke-width:0.36584055;stroke-linecap:round;stroke-linejoin:round;stroke-miterlimit:4;stroke-dasharray:none;stroke-opacity:1"/><path d="m 189.16195,12.600013 2.05906,0 0,2.799974 -2.05906,0 z" id="path4327" style="opacity:1;fill:none;fill-opacity:1;stroke:#cccccc;stroke-width:0.36584055;stroke-linecap:round;stroke-linejoin:round;stroke-miterlimit:4;stroke-dasharray:none;stroke-opacity:1"/><path d="m 192.37504,12.600013 2.05906,0 0,2.799974 -2.05906,0 z" id="path4329" style="opacity:1;fill:none;fill-opacity:1;stroke:#cccccc;stroke-width:0.36584055;stroke-linecap:round;stroke-linejoin:round;stroke-miterlimit:4;stroke-dasharray:none;stroke-opacity:1"/><path d="m 195.55711,12.600013 2.05906,0 0,2.799974 -2.05906,0 z" id="path4331" style="opacity:1;fill:none;fill-opacity:1;stroke:#cccccc;stroke-width:0.36584055;stroke-linecap:round;stroke-linejoin:round;stroke-miterlimit:4;stroke-dasharray:none;stroke-opacity:1"/><path d="m 198.75905,12.600013 2.05907,0 0,2.799974 -2.05907,0 z" id="path4333" style="opacity:1;fill:none;fill-opacity:1;stroke:#cccccc;stroke-width:0.36584055;stroke-linecap:round;stroke-linejoin:round;stroke-miterlimit:4;stroke-dasharray:none;stroke-opacity:1"/><path d="m 201.94112,12.600013 2.05906,0 0,2.799974 -2.05906,0 z" id="path4335" style="opacity:1;fill:none;fill-opacity:1;stroke:#cccccc;stroke-width:0.36584055;stroke-linecap:round;stroke-linejoin:round;stroke-miterlimit:4;stroke-dasharray:none;stroke-opacity:1"/><path d="m 205.21556,12.600013 2.05906,0 0,2.799974 -2.05906,0 z" id="path4337" style="opacity:1;fill:none;fill-opacity:1;stroke:#cccccc;stroke-width:0.36584055;stroke-linecap:round;stroke-linejoin:round;stroke-miterlimit:4;stroke-dasharray:none;stroke-opacity:1"/><path d="m 185.97988,16.600013 2.05906,0 0,2.799974 -2.05906,0 z" id="path4339" style="opacity:1;fill:none;fill-opacity:1;stroke:#cccccc;stroke-width:0.36584055;stroke-linecap:round;stroke-linejoin:round;stroke-miterlimit:4;stroke-dasharray:none;stroke-opacity:1"/><path d="m 189.16195,16.600013 2.05906,0 0,2.799974 -2.05906,0 z" id="path4341" style="opacity:1;fill:none;fill-opacity:1;stroke:#cccccc;stroke-width:0.36584055;stroke-linecap:round;stroke-linejoin:round;stroke-miterlimit:4;stroke-dasharray:none;stroke-opacity:1"/><path d="m 192.37504,16.600013 2.05906,0 0,2.799974 -2.05906,0 z" id="path4343" style="opacity:1;fill:none;fill-opacity:1;stroke:#cccccc;stroke-width:0.36584055;stroke-linecap:round;stroke-linejoin:round;stroke-miterlimit:4;stroke-dasharray:none;stroke-opacity:1"/><path d="m 195.55711,16.600013 2.05906,0 0,2.799974 -2.05906,0 z" id="path4345" style="opacity:1;fill:none;fill-opacity:1;stroke:#cccccc;stroke-width:0.36584055;stroke-linecap:round;stroke-linejoin:round;stroke-miterlimit:4;stroke-dasharray:none;stroke-opacity:1"/><path d="m 198.75905,16.600013 2.05907,0 0,2.799974 -2.05907,0 z" id="path4347" style="opacity:1;fill:none;fill-opacity:1;stroke:#cccccc;stroke-width:0.36584055;stroke-linecap:round;stroke-linejoin:round;stroke-miterlimit:4;stroke-dasharray:none;stroke-opacity:1"/><path d="m 201.94112,16.600013 2.05906,0 0,2.799974 -2.05906,0 z" id="path4349" style="opacity:1;fill:none;fill-opacity:1;stroke:#cccccc;stroke-width:0.36584055;stroke-linecap:round;stroke-linejoin:round;stroke-miterlimit:4;stroke-dasharray:none;stroke-opacity:1"/><path d="m 205.21556,16.600013 2.05906,0 0,2.799974 -2.05906,0 z" id="path4351" style="opacity:1;fill:none;fill-opacity:1;stroke:#cccccc;stroke-width:0.36584055;stroke-linecap:round;stroke-linejoin:round;stroke-miterlimit:4;stroke-dasharray:none;stroke-opacity:1"/><path d="m 185.97988,20.600013 2.05906,0 0,2.799974 -2.05906,0 z" id="path4353" style="opacity:1;fill:none;fill-opacity:1;stroke:#cccccc;stroke-width:0.36584055;stroke-linecap:round;stroke-linejoin:round;stroke-miterlimit:4;stroke-dasharray:none;stroke-opacity:1"/><path d="m 189.16195,20.600013 2.05906,0 0,2.799974 -2.05906,0 z" id="path4355" style="opacity:1;fill:none;fill-opacity:1;stroke:#cccccc;stroke-width:0.36584055;stroke-linecap:round;stroke-linejoin:round;stroke-miterlimit:4;stroke-dasharray:none;stroke-opacity:1"/><path d="m 192.37504,20.600013 2.05906,0 0,2.799974 -2.05906,0 z" id="path4357" style="opacity:1;fill:none;fill-opacity:1;stroke:#cccccc;stroke-width:0.36584055;stroke-linecap:round;stroke-linejoin:round;stroke-miterlimit:4;stroke-dasharray:none;stroke-opacity:1"/><path d="m 195.55711,20.600013 2.05906,0 0,2.799974 -2.05906,0 z" id="path4359" style="opacity:1;fill:none;fill-opacity:1;stroke:#cccccc;stroke-width:0.36584055;stroke-linecap:round;stroke-linejoin:round;stroke-miterlimit:4;stroke-dasharray:none;stroke-opacity:1"/><path d="m 198.75905,20.600013 2.05907,0 0,2.799974 -2.05907,0 z" id="path4361" style="opacity:1;fill:none;fill-opacity:1;stroke:#cccccc;stroke-width:0.36584055;stroke-linecap:round;stroke-linejoin:round;stroke-miterlimit:4;stroke-dasharray:none;stroke-opacity:1"/><path d="m 201.94112,20.600013 2.05906,0 0,2.799974 -2.05906,0 z" id="path4363" style="opacity:1;fill:none;fill-opacity:1;stroke:#cccccc;stroke-width:0.36584055;stroke-linecap:round;stroke-linejoin:round;stroke-miterlimit:4;stroke-dasharray:none;stroke-opacity:1"/><path d="m 205.21556,20.600013 2.05906,0 0,2.799974 -2.05906,0 z" id="path4365" style="opacity:1;fill:none;fill-opacity:1;stroke:#cccccc;stroke-width:0.36584055;stroke-linecap:round;stroke-linejoin:round;stroke-miterlimit:4;stroke-dasharray:none;stroke-opacity:1"/></g></g></svg>