<?xml version="1.0" encoding="iso-8859-1"?>
<!-- Generator: Adobe Illustrator 19.0.0, SVG Export Plug-In . SVG Version: 6.00 Build 0)  -->
<svg version="1.1" id="Layer_1" xmlns="http://www.w3.org/2000/svg" xmlns:xlink="http://www.w3.org/1999/xlink" x="0px" y="0px"
	 viewBox="0 0 512 512" style="enable-background:new 0 0 512 512;" xml:space="preserve">
<path style="fill:#FFB47D;" d="M489.798,239.613c-16.627-10.241-70.258-23.335-145.52-23.335l-39.756-46.38
	c-8.385-9.782-20.627-15.413-33.511-15.413H152.008c-12.644,0-24.87,4.523-34.47,12.751L70.624,207.45l-50.039,7.148
	c-7.106,1.015-12.889,6.231-14.63,13.195l-5.95,23.794l132.415,61.792h370.755v-49.903
	C503.173,253.717,498.107,244.732,489.798,239.613z"/>
<path style="fill:#FF9164;" d="M503.173,269.241c0-17.655-26.482-35.31-150.067-35.31H8.831c-4.875,0-8.827,3.953-8.827,8.827
	v52.965l167.725,26.482h335.445V269.241z"/>
<path style="fill:#FF7D5A;" d="M503.173,304.551H89.244l-78.5-17.443c-4.715-1.035-9.474,1.935-10.535,6.702
	c-1.052,4.759,1.949,9.474,6.707,10.53l79.447,17.655c0.629,0.142,1.267,0.211,1.913,0.211h414.894c4.879,0,8.828-3.953,8.828-8.827
	C511.999,308.504,508.052,304.551,503.173,304.551z"/>
<circle style="fill:#EDEDEE;" cx="423.72" cy="304.549" r="44.137"/>
<path style="fill:#504B5A;" d="M423.725,357.516c-29.207,0-52.965-23.758-52.965-52.965c0-29.207,23.758-52.965,52.965-52.965
	s52.965,23.758,52.965,52.965C476.69,333.758,452.932,357.516,423.725,357.516z M423.725,269.241
	c-19.473,0-35.31,15.837-35.31,35.31c0,19.473,15.837,35.31,35.31,35.31s35.31-15.836,35.31-35.31
	C459.035,285.078,443.199,269.241,423.725,269.241z"/>
<circle style="fill:#DCDBDE;" cx="423.72" cy="304.549" r="17.655"/>
<circle style="fill:#EDEDEE;" cx="88.275" cy="304.549" r="44.137"/>
<path style="fill:#504B5A;" d="M88.279,357.516c-29.207,0-52.965-23.758-52.965-52.965c0-29.207,23.758-52.965,52.965-52.965
	s52.965,23.758,52.965,52.965C141.243,333.758,117.485,357.516,88.279,357.516z M88.279,269.241c-19.473,0-35.31,15.837-35.31,35.31
	c0,19.473,15.837,35.31,35.31,35.31s35.31-15.836,35.31-35.31C123.589,285.078,107.752,269.241,88.279,269.241z"/>
<circle style="fill:#DCDBDE;" cx="88.275" cy="304.549" r="17.655"/>
<g>
	<path style="fill:#FF7D5A;" d="M353.105,286.896H167.728c-4.875,0-8.827-3.953-8.827-8.827l0,0c0-4.875,3.953-8.827,8.827-8.827
		h185.377c4.875,0,8.827,3.952,8.827,8.827l0,0C361.933,282.945,357.98,286.896,353.105,286.896z"/>
	<path style="fill:#FF7D5A;" d="M503.173,286.896h-8.827c-4.875,0-8.828-3.953-8.828-8.827l0,0c0-4.875,3.953-8.827,8.828-8.827
		h8.827c4.875,0,8.827,3.952,8.827,8.827l0,0C512,282.945,508.048,286.896,503.173,286.896z"/>
</g>
<path style="fill:#FF9164;" d="M70.624,207.449l46.914-40.214c9.6-8.228,21.826-12.751,34.47-12.751h119.003
	c12.885,0,25.125,5.63,33.511,15.413l39.756,46.38H135.276c-7.78,0-15.546-0.643-23.221-1.922L70.624,207.449z"/>
<path style="fill:#625D6B;" d="M261.294,169.664c-3.354-4.025-8.323-6.352-13.563-6.352h-81.524c-4.682,0-9.173,1.86-12.483,5.171
	l-26.482,26.482c-2.341,2.341-3.657,5.516-3.657,8.827l0,0c0,6.894,5.589,12.484,12.484,12.484h154.647
	c3.742,0,5.786-4.365,3.391-7.24L261.294,169.664z"/>
<polygon style="fill:#504B5A;" points="185.381,216.276 158.898,216.276 176.553,163.312 194.208,163.312 "/>
<path style="fill:#EDEDEE;" d="M493.697,242.759h-8.181c-4.875,0-8.827,3.952-8.827,8.827s3.953,8.827,8.827,8.827h17.261
	C502.011,253.548,498.814,247.337,493.697,242.759z"/>
<path style="fill:#625D6B;" d="M304.522,169.897c-2.115-2.468-4.48-4.669-7.036-6.585H283.08c-3.742,0-5.786,4.364-3.391,7.24
	l32.813,39.374c3.354,4.025,8.323,6.352,13.562,6.352h18.213L304.522,169.897z"/>
<path style="fill:#FF6464;" d="M0.004,242.759v8.827h17.655c4.875,0,8.827-3.952,8.827-8.827s-3.953-8.827-8.827-8.827H8.831
	C3.955,233.931,0.004,237.884,0.004,242.759z"/>
<g>
</g>
<g>
</g>
<g>
</g>
<g>
</g>
<g>
</g>
<g>
</g>
<g>
</g>
<g>
</g>
<g>
</g>
<g>
</g>
<g>
</g>
<g>
</g>
<g>
</g>
<g>
</g>
<g>
</g>
</svg>
