<svg width="48.00000000000001" height="48.00000000000001" xmlns="http://www.w3.org/2000/svg">
 <g>
  <title>background</title>
  <rect fill="none" id="canvas_background" height="50" width="50" y="-1" x="-1"/>
 </g>

 <g>
  <title>Layer 1</title>
  <path fill="white" id="svg_1" d="m20.36,18"/>
  <path fill="white" id="svg_2" d="m42,32l0,-4l-16,-10l0,-11c0,-1.66 -1.34,-3 -3,-3s-3,1.34 -3,3l0,11l-16,10l0,4l16,-5l0,11l-4,3l0,3l7,-2l7,2l0,-3l-4,-3l0,-11l16,5z"/>
  <path fill="none" id="svg_3" d="m0.824562,1.35088l48,0l0,48l-48,0l0,-48z"/>
 </g>
</svg>