<?xml version="1.0" ?><!DOCTYPE svg  PUBLIC '-//W3C//DTD SVG 1.1//EN'  'http://www.w3.org/Graphics/SVG/1.1/DTD/svg11.dtd'><svg enable-background="new 0 0 64 64" height="64px" id="Layer_1" version="1.1" viewBox="0 0 64 64" width="64px" xml:space="preserve" xmlns="http://www.w3.org/2000/svg" xmlns:xlink="http://www.w3.org/1999/xlink"><g><path d="M1.649,61.935c-0.343,0-0.623-0.279-0.623-0.622V15.377c0-0.343,0.279-0.622,0.623-0.622h14.231V5.067   c0-0.041-0.014-0.951,0.579-1.723c0.672-0.876,1.373-1.217,2.585-1.256c0.306-0.01,1.811-0.022,7.243-0.022   c7.529,0,18.136,0.023,18.136,0.023l0.103-0.005c0.014-0.001,0.104-0.008,0.241-0.008c0.437,0,1.527,0.07,2.216,0.721   c1.014,0.958,1.053,1.514,1.107,2.283c0.021,0.278,0.048,1.769,0.007,8.672l-0.006,1.006h14.26c0.343,0,0.621,0.279,0.621,0.622   v45.935c0,0.343-0.278,0.622-0.621,0.622H1.649z M24.584,51.742c0,1.446,1.176,2.622,2.622,2.622h9.586   c1.445,0,2.621-1.176,2.621-2.622v-5.701h5.699c1.446,0,2.623-1.176,2.623-2.622v-9.603c0-1.446-1.177-2.623-2.623-2.623h-5.699   v-5.682c0-1.445-1.176-2.622-2.621-2.622h-9.586c-1.446,0-2.622,1.176-2.622,2.622v5.682h-5.699c-1.446,0-2.623,1.176-2.623,2.623   v9.603c0,1.446,1.176,2.622,2.623,2.622h5.699V51.742z M20.768,4.93c-1.208,0-2.021,0.768-2.021,1.912v7.915h26.476V6.968   c0.005-0.111,0.002-0.87-0.556-1.446c-0.25-0.259-0.7-0.568-1.423-0.568H21.14C21.053,4.942,20.922,4.93,20.768,4.93z" fill="white"/><path d="M26.288,3.065c7.527,0,18.133,0.023,18.134,0.023l0.104-0.002l0.082-0.006   c0.022-0.002,0.079-0.005,0.16-0.005c0.51,0,1.18,0.118,1.528,0.447c0.731,0.691,0.749,0.946,0.798,1.634   c0.015,0.217,0.046,1.488,0.004,8.588l-0.012,2.012h2.012h12.875v45.179H2.027V15.756h12.854h2v-2V5.067V5.026l-0.001-0.041   c0-0.005,0.027-0.581,0.374-1.033c0.43-0.561,0.813-0.833,1.826-0.866C19.377,3.077,20.87,3.065,26.288,3.065 M17.747,15.756h2   h24.476h2v-2V6.985c0.005-0.359-0.061-1.356-0.836-2.159c-0.544-0.563-1.305-0.873-2.143-0.873H21.2   C21.083,3.94,20.935,3.93,20.768,3.93c-1.75,0-3.021,1.225-3.021,2.912v6.915V15.756 M23.584,30.194h-4.699   c-1.998,0-3.623,1.625-3.623,3.623v9.603c0,1.997,1.625,3.622,3.623,3.622h4.699v4.701c0,1.997,1.625,3.622,3.622,3.622h9.586   c1.997,0,3.621-1.625,3.621-3.622v-4.701h4.699c1.998,0,3.623-1.625,3.623-3.622v-9.603c0-1.998-1.625-3.623-3.623-3.623h-4.699   v-4.682c0-1.997-1.624-3.622-3.621-3.622h-9.586c-1.997,0-3.622,1.625-3.622,3.622V30.194 M26.288,1.065   c-3.766,0-6.761,0.006-7.276,0.023c-1.546,0.05-2.509,0.557-3.346,1.647c-0.836,1.09-0.786,2.332-0.786,2.332v8.689H1.649   c-0.896,0-1.623,0.725-1.623,1.622v45.935c0,0.896,0.727,1.622,1.623,1.622h60.702c0.895,0,1.621-0.726,1.621-1.622V15.377   c0-0.896-0.727-1.622-1.621-1.622H49.098c0.016-2.624,0.043-8.035-0.01-8.748c-0.066-0.946-0.168-1.758-1.418-2.94   c-0.934-0.881-2.278-0.994-2.902-0.994c-0.213,0-0.342,0.013-0.342,0.013S33.817,1.065,26.288,1.065L26.288,1.065z M19.747,13.756   c0-2.155,0-6.094,0-6.915c0-0.79,0.632-0.912,1.021-0.912c0.173,0,0.297,0.024,0.297,0.024s21.166,0,22.179,0   s0.979,1.014,0.979,1.014v6.788H19.747L19.747,13.756z M18.886,45.041c-0.893,0-1.623-0.729-1.623-1.622v-9.603   c0-0.892,0.73-1.623,1.623-1.623h6.699v-6.682c0-0.893,0.714-1.622,1.622-1.622h9.586c0.908,0,1.621,0.729,1.621,1.622v6.682h6.699   c0.893,0,1.623,0.73,1.623,1.623v9.603c0,0.894-0.73,1.622-1.623,1.622h-6.699v6.701c0,0.89-0.713,1.622-1.621,1.622h-9.586   c-0.908,0-1.622-0.732-1.622-1.622v-6.701H18.886L18.886,45.041z" fill="white"/></g></svg>